<?xml version="1.0" encoding="UTF-8"?><svg xmlns="http://www.w3.org/2000/svg" xmlns:xlink="http://www.w3.org/1999/xlink" viewBox="0 0 742 425"><defs><style>.cls-1{fill:url(#linear-gradient-12);}.cls-1,.cls-2,.cls-3,.cls-4,.cls-5,.cls-6,.cls-7,.cls-8,.cls-9,.cls-10,.cls-11,.cls-12,.cls-13,.cls-14,.cls-15,.cls-16,.cls-17,.cls-18,.cls-19{stroke-width:0px;}.cls-2{fill:url(#linear-gradient);}.cls-3{fill:url(#linear-gradient-6);}.cls-4,.cls-10{fill:#1c2538;}.cls-5{fill:#3bbc1e;}.cls-6{fill:url(#linear-gradient-11);}.cls-7{fill:url(#linear-gradient-5);}.cls-8{fill:none;}.cls-9{fill:url(#linear-gradient-13);}.cls-10{opacity:.6;}.cls-10,.cls-16{isolation:isolate;}.cls-11{fill:url(#linear-gradient-2);}.cls-12{fill:url(#linear-gradient-7);}.cls-13{fill:url(#linear-gradient-3);}.cls-20{clip-path:url(#clippath);}.cls-14{fill:url(#linear-gradient-9);}.cls-15{fill:url(#linear-gradient-8);}.cls-16{fill:#a045cd;opacity:.46;}.cls-17{fill:#a3ea2a;}.cls-18{fill:url(#linear-gradient-10);}.cls-19{fill:url(#linear-gradient-4);}</style><linearGradient id="linear-gradient" x1="371" y1="542.92" x2="371" y2="9.8" gradientUnits="userSpaceOnUse"><stop offset="0" stop-color="#3bc81e"/><stop offset=".6" stop-color="#235d26"/><stop offset="1" stop-color="#151c2b"/></linearGradient><clipPath id="clippath"><rect class="cls-8" width="742" height="425"/></clipPath><linearGradient id="linear-gradient-2" x1="571.49" y1="243.12" x2="572.82" y2="104.79" gradientUnits="userSpaceOnUse"><stop offset=".02" stop-color="#727c92"/><stop offset=".04" stop-color="#778196"/><stop offset=".19" stop-color="#98a0b0"/><stop offset=".35" stop-color="#b2b8c4"/><stop offset=".51" stop-color="#c5cad3"/><stop offset=".68" stop-color="#d0d4dc"/><stop offset=".86" stop-color="#d4d8df"/></linearGradient><linearGradient id="linear-gradient-3" x1="674.27" y1="166.59" x2="670.28" y2="78.8" xlink:href="#linear-gradient-2"/><linearGradient id="linear-gradient-4" x1="336.76" y1="215.4" x2="338.09" y2="75.74" xlink:href="#linear-gradient-2"/><linearGradient id="linear-gradient-5" x1="513.34" y1="137.9" x2="509.35" y2="22.18" xlink:href="#linear-gradient-2"/><linearGradient id="linear-gradient-6" x1="299" y1="109.29" x2="292.34" y2="12.19" xlink:href="#linear-gradient-2"/><linearGradient id="linear-gradient-7" x1="-7.81" y1="40.48" x2="177.66" y2="40.48" xlink:href="#linear-gradient-2"/><linearGradient id="linear-gradient-8" x1="533.43" y1="42.58" x2="533.43" y2="-21.26" xlink:href="#linear-gradient-2"/><linearGradient id="linear-gradient-9" x1="270.65" y1="30.42" x2="267.99" y2="-69.34" xlink:href="#linear-gradient-2"/><linearGradient id="linear-gradient-10" x1="485.32" y1="347.06" x2="573.11" y2="55.76" gradientUnits="userSpaceOnUse"><stop offset=".02" stop-color="#525a6a"/><stop offset=".08" stop-color="#575f70"/><stop offset=".3" stop-color="#666f83"/><stop offset=".54" stop-color="#6f788e"/><stop offset=".79" stop-color="#727c92"/></linearGradient><linearGradient id="linear-gradient-11" x1="78.52" y1="246.09" x2="78.52" y2="135.69" xlink:href="#linear-gradient-2"/><linearGradient id="linear-gradient-12" x1="157.5" y1="429.45" x2="168.14" y2="243.23" xlink:href="#linear-gradient-2"/><linearGradient id="linear-gradient-13" x1="-6.53" y1="124.3" x2="270.61" y2="124.3" xlink:href="#linear-gradient-2"/></defs><g id="Layer_2"><rect class="cls-2" width="742" height="425"/></g><g id="Layer_1"><g class="cls-20"><polygon class="cls-11" points="588.17 240.74 724.8 189.29 536.24 154.13 419.11 201.2 588.17 240.74"/><path class="cls-4" d="M419.11,201.2s-3.2,3.97-5.57,9.92c0,0,168.33,45.65,176.27,45.65s136.72-52.29,136.72-52.29c0,0,2.22-11.23-1.75-15.2l-136.62,51.45-169.05-39.55h0Z"/><polygon class="cls-13" points="749 78.49 749 154.59 593.79 128.23 661.27 70.19 749 78.49"/><path class="cls-4" d="M751.76,152.72v15.33c-52.96-9.8-181.79-34.34-181.79-34.34,1.94-6.07,23.82-5.48,23.82-5.48l149.51,23.56,8.46.93Z"/><polygon class="cls-19" points="355.43 193.26 192.05 162.22 345.76 118.87 482.64 145.62 355.43 193.26"/><path class="cls-4" d="M192.05,162.22s-7.15,7.23-7.15,11.2c0,0,162.93,34.01,168.8,32.89,5.87-1.13,112.6-41.85,112.6-41.85l12.14-19.64-124.75,44.49-161.65-27.07h.01Z"/><polygon class="cls-7" points="531.59 116.54 366.7 94.94 513.26 58.13 655.86 61.68 531.59 116.54"/><path class="cls-4" d="M366.7,94.94s-6.73,7.63-6.5,11.58c0,0,164.62,24.6,170.41,23.14,5.79-1.46,110.01-48.25,110.01-48.25l10.99-20.31-121.98,51.58-162.93-17.74h0Z"/><path class="cls-4" d="M434.02,51.2l8.54,6.58s-127.44,39.68-129.83,39.76c-2.4.1-159.46-18.89-159.46-18.89,0,0,.61-5.65,4.16-6.68,3.55-1.03,149.54,11.53,149.54,11.53l127.05-32.3Z"/><polygon class="cls-3" points="308.38 85.76 157.43 71.97 284.14 42.4 434.02 51.2 308.38 85.76"/><path class="cls-4" d="M-3.05,49.33l180.71-20.66,8.54,6.58s-110.49,31.93-128.64,37.05c-1.46.41-57.31-8.22-57.49-8.22"/><polyline class="cls-12" points="-7.81 17.79 177.66 28.67 52.24 63.17 -3.05 57.12"/><path class="cls-4" d="M662.01-5.21l7.95,6.16s-118.48,37.15-120.72,37.23c-2.23.09-148.27-17.74-148.27-17.74,0,0,.57-5.29,3.86-6.25s139.05,10.83,139.05,10.83l118.13-30.23h0Z"/><polygon class="cls-15" points="545.21 27.14 404.84 14.19 522.66 -13.48 662.01 -5.21 545.21 27.14"/><path class="cls-4" d="M398.14-20.23l7.95,6.16s-118.48,37.15-120.72,37.23c-2.23.09-148.27-17.74-148.27-17.74,0,0,.57-5.29,3.86-6.25s139.05,10.83,139.05,10.83c0,0,118.13-30.23,118.13-30.23Z"/><polygon class="cls-14" points="281.34 12.12 140.97 -.83 258.79 -28.5 398.14 -20.23 281.34 12.12"/><line class="cls-8" x1="261.71" y1="269.15" x2="290.15" y2="277.07"/><polyline class="cls-16" points="478.42 208.85 453.59 249.41 454.52 250.34 469.53 245.66 469.15 243.4 458.39 246.53 483.17 209.1 478.42 208.85"/><polygon class="cls-17" points="377.01 334 72.85 264.95 240.36 220.15 535.51 273.36 377.01 334"/><path class="cls-4" d="M691.65,30.55l-144.54,45.53-2.18-.88-167.92,258.79-13.64-3.11,160.8-260.03c1.26-2.03,3.24-3.5,5.55-4.11l152.87-40.22,9.06,4.03Z"/><path class="cls-18" d="M377.01,334l160.81-260.66c.57-.92,1.47-1.6,2.52-1.88l150.71-40.73c1.03-.28,1.87.87,1.28,1.76l-156.79,240.82s-.06.08-.12.1l-158.42,60.6h.01Z"/><polygon class="cls-5" points="486.6 197.23 486.6 209.14 482.06 209.14 457.34 249.41 467.65 246.6 467.65 248.48 450.78 254.1 450.84 253.99 478.65 209.14 474.69 209.14 486.6 197.23"/><g id="Layer_2-2"><polygon class="cls-4" points="240.36 220.15 240.36 240.39 119.52 275.54 72.85 264.95 240.36 220.15"/><polygon class="cls-4" points="151.23 282.7 261.69 247.85 261.71 269.15 191.76 291.94 151.23 282.7"/><polygon class="cls-4" points="224.35 299.57 290.15 277.07 290.15 294.04 258.91 307.18 224.35 299.57"/><polygon class="cls-4" points="286.23 313.63 320.47 298.53 320.47 314.28 311.24 319.07 286.23 313.63"/><path class="cls-4" d="M543.57,90.2l25.5-2.22-8.17,12.49-5.96,2.55,6.2-9.74-5.53,1.43-5.71,9.01-5.16,1.25,5.96-9.5-5.93.14-7.82,12.61-4.61.04,11.22-18.06h.02Z"/><path class="cls-4" d="M547.48,111.25c0,.35-.15.89-.44,1.62-.33.79-.86,1.76-1.61,2.91-.82,1.25-1.8,2.48-2.94,3.66-1.17,1.22-2.43,2.36-3.82,3.41s-2.82,1.98-4.32,2.79c-1.48.77-3,1.42-4.54,1.91l-11.54,1.91,3.96-6.46,10.38-.95c1.97-.5,3.54-1.14,4.66-1.82s2.03-1.57,2.68-2.59c.2-.31.39-.62.56-.94.17-.31.31-.58.42-.82l-15.11,1.39,2.87-4.47,18.79-1.53h0Z"/><path class="cls-4" d="M543.43,132.88l-.7,2.56-7.32,1.98-3.37,5.11-5.61,1.24,3.63-5.47-7.17.16c-1.12-.11-2.1-.05-2.97.19s-1.67.92-2.43,2.06c-.38.57-.73,1.17-1.03,1.81-.32.64-.57,1.24-.75,1.81l-4.53.18c.27-.8.6-1.66,1.02-2.59.41-.91,1.01-1.96,1.8-3.13.97-1.44,1.88-2.51,2.78-3.24.88-.7,1.75-1.15,2.65-1.38.89-.23,1.82-.28,2.81-.17,1.01.08,3.31-.25,4.48-.06l16.71-1.08h-.01Z"/><path class="cls-4" d="M516.11,148.77c1.72-.13,3.18-.2,4.37-.21,1.23-.09,2.21-.09,2.91.02.7.09,1.13.31,1.24.71.1.42-.1,1.01-.61,1.78-1.31,2-3.53,4.29-6.59,6.73-3.09,2.5-6.64,4.55-10.45,5.81-.35.1-.74.19-1.16.28-.41.08-.76.14-1.05.18l7.41-11.81c-1.17.14-2.3.55-3.4,1.29-1.14.77-2.16,1.88-3.08,3.36-.62,1-1.16,2.01-1.62,3.02-.46,1.04-.78,1.91-.93,2.59l-4.92,1.09c.09-.38.25-.87.47-1.48.21-.59.5-1.25.83-1.96.32-.7.69-1.44,1.09-2.21.4-.75.8-1.47,1.24-2.18,1.07-1.72,2.17-3.06,3.31-4.05,1.09-.92,2.22-1.59,3.38-2.02,1.15-.41,2.34-.64,3.59-.74,1.28-.13,2.6-.19,3.97-.21v.02ZM512.32,157.55c.54-.17,1.09-.4,1.68-.67.59-.28,1.16-.61,1.72-1,.56-.38,1.08-.78,1.57-1.23.48-.43.89-.9,1.2-1.38.29-.45.42-.79.38-1.02-.04-.24-.19-.39-.44-.47-.26-.1-.6-.13-1.03-.11-.43,0-.88.04-1.34.09l-3.72,5.79h-.01Z"/><path class="cls-4" d="M501.06,179.61c.46-.64.98-1.36,1.56-2.18.57-.78,1.07-1.57,1.52-2.33.2-.33.41-.72.61-1.15.2-.41.32-.71.36-.89l-14.29,2.33,3.3-5.66,17.55-2.52c-.02.41-.17.97-.43,1.71-.28.8-.86,1.9-1.74,3.34-.16.28-.39.61-.67,1.04-.29.43-.59.88-.91,1.35-.32.47-.67.97-1.03,1.49-.36.51-.71.99-1.05,1.42l-4.78,2.05h-.01Z"/><polygon class="cls-4" points="332.18 323.95 341.55 320.19 340.62 325.83 332.18 323.95"/></g><g id="Layer_8"><polyline class="cls-4" points="465.24 359.67 761.49 225.66 761.49 242.43 113.97 552.34 64.26 552.34 465.24 359.67"/></g><path class="cls-4" d="M180.92,209.13l-148.26,41.33-40.16-8.26,11.93-10.1,172.48-32.89s4.01,5.95,4.01,9.92h-.01Z"/><polygon class="cls-6" points="176.92 199.21 32.67 238.51 -19.89 230.26 6.98 178.53 38.58 181.98 176.92 199.21"/><path class="cls-4" d="M36.19,199.66c.24-.27.49-.54.78-.8.28-.26.48-.45.62-.56,1.28-1.05,2.86-1.83,4.87-2.39,2-.56,4.14-.94,6.47-1.17l7.51,1.73c-1.87.54-3.65,1.19-5.37,1.98-1.78.82-3.28,1.67-4.51,2.56-.05.03-.16.12-.33.24-.17.12-.35.27-.56.43-.2.17-.42.34-.64.53-.23.18-.42.34-.57.49l-8.27-3.06v.02ZM49.39,204.05c.34-.31.72-.63,1.13-.95.4-.32.7-.55.9-.69,1.88-1.32,4.17-2.41,6.98-3.33,2.8-.91,5.72-1.64,8.81-2.2l8.84,1.14c-2.46.79-4.84,1.72-7.19,2.79-2.4,1.09-4.42,2.18-6.08,3.27-.06.04-.21.14-.44.29-.23.15-.48.32-.75.53-.28.2-.57.41-.87.62-.3.21-.56.41-.76.58l-10.54-2.04h-.02Z"/><polygon class="cls-1" points="331.78 348.08 196.81 411.61 -3.05 369.82 -3.05 270.57 331.78 348.08"/><path class="cls-4" d="M339.72,356.02v3.97l-134.62,63.52h-21.2L-12.4,381.04v-15.17l209.21,45.72,134.97-63.52s7.94,3.97,7.94,7.94h0Z"/><polygon class="cls-9" points="270.61 114.89 126.58 156.06 36.03 141.96 -6.53 134.92 99.31 92.55 270.61 114.89"/><path class="cls-4" d="M270.61,114.89s9.57,2.94,9.57,6.91c0,0-148.43,44.62-153.61,46.12L5.52,148.75v-11.83l121.06,19.13,144.02-41.17h0Z"/><polygon class="cls-4" points="161.08 395.72 184.89 403.66 196.81 391.75 208.71 395.72 204.75 375.88 172.98 383.81 179.76 387.31 161.08 395.72"/><polygon class="cls-10" points="768.02 323.01 768.95 413.02 699 409.78 535.87 378.03 489.14 368.6 464.78 351.48 377 333.77 535.46 273.11 612.08 286.21 639.55 291.17 768.02 323.01"/></g></g></svg>